<svg width="40" height="40" viewBox="0 0 40 40" fill="none" xmlns="http://www.w3.org/2000/svg">
<path d="M13.6702 35.5832C11.4086 35.5832 9.43656 35.1694 7.75414 34.342C6.07171 33.5146 4.77541 32.3424 3.86525 30.8255C2.95508 29.2809 2.5 27.502 2.5 25.4886C2.5 23.1994 2.96887 21.2274 3.90662 19.5725C4.84437 17.8901 6.15445 16.6076 7.83688 15.725C9.54689 14.8424 11.5327 14.4011 13.7943 14.4011C16.056 14.4011 18.028 14.8148 19.7104 15.6423C21.3928 16.4697 22.6891 17.6419 23.5993 19.1588C24.5095 20.6757 24.9645 22.4409 24.9645 24.4543C24.9645 26.7711 24.4957 28.7707 23.5579 30.4531C22.6202 32.108 21.2963 33.3767 19.5863 34.2593C17.9039 35.1419 15.9318 35.5832 13.6702 35.5832ZM13.5461 30.1635C15.0079 30.1635 16.056 29.6119 16.6903 28.5087C17.3522 27.4055 17.6832 25.9988 17.6832 24.2888C17.6832 22.7719 17.366 21.6549 16.7317 20.9378C16.1249 20.1931 15.1872 19.8207 13.9184 19.8207C12.4567 19.8207 11.3948 20.3724 10.7329 21.4756C10.0985 22.5512 9.78132 23.9303 9.78132 25.6127C9.78132 27.1572 10.0847 28.3018 10.6915 29.0465C11.3258 29.7912 12.2774 30.1635 13.5461 30.1635Z" fill="#1887ED"/>
<path d="M31.4333 21.4617C30.2185 21.4617 29.1593 21.2261 28.2556 20.7547C27.3519 20.2834 26.6556 19.6156 26.1667 18.7515C25.6778 17.8716 25.4333 16.8582 25.4333 15.7112C25.4333 14.4072 25.6852 13.2838 26.1889 12.3411C26.6926 11.3827 27.3963 10.6521 28.3 10.1493C29.2185 9.64653 30.2852 9.39514 31.5 9.39514C32.7148 9.39514 33.774 9.63082 34.6777 10.1022C35.5814 10.5735 36.2777 11.2413 36.7666 12.1054C37.2555 12.9696 37.4999 13.9751 37.4999 15.1221C37.4999 16.4418 37.2481 17.5809 36.7444 18.5394C36.2407 19.4821 35.5296 20.2048 34.6111 20.7076C33.7074 21.2103 32.6481 21.4617 31.4333 21.4617ZM31.3666 18.3744C32.1518 18.3744 32.7148 18.0601 33.0555 17.4317C33.4111 16.8032 33.5889 16.0019 33.5889 15.0278C33.5889 14.1636 33.4185 13.5273 33.0777 13.1188C32.7518 12.6946 32.2481 12.4825 31.5666 12.4825C30.7815 12.4825 30.2111 12.7967 29.8555 13.4252C29.5148 14.0379 29.3444 14.8235 29.3444 15.7819C29.3444 16.6618 29.5074 17.3138 29.8333 17.7381C30.1741 18.1623 30.6852 18.3744 31.3666 18.3744Z" fill="#25C63F"/>
<circle cx="21.9858" cy="5.9476" r="3.4476" fill="#09111F"/>
</svg>
